<svg xmlns="http://www.w3.org/2000/svg" width="30" height="31" viewBox="0 0 30 31" fill="none">
<g clip-path="url(#clip0_1454_2864)">
<path d="M17.82 27.3433L15 30.1633L12.18 27.3433C6.6375 26.0633 2.5 21.0933 2.5 15.1633C2.5 8.26331 8.1 2.66331 15 2.66331C21.9 2.66331 27.5 8.26331 27.5 15.1633C27.5 21.0933 23.3625 26.0633 17.82 27.3433ZM7.52875 19.4333C9.36375 22.1708 12.1187 23.9133 15.2 23.9133C18.28 23.9133 21.0362 22.1721 22.87 19.4333C20.7897 17.4891 18.0474 16.4093 15.2 16.4133C12.3521 16.409 9.60939 17.4888 7.52875 19.4333ZM15 13.9133C15.9946 13.9133 16.9484 13.5182 17.6517 12.815C18.3549 12.1117 18.75 11.1579 18.75 10.1633C18.75 9.16875 18.3549 8.21493 17.6517 7.51166C16.9484 6.8084 15.9946 6.41331 15 6.41331C14.0054 6.41331 13.0516 6.8084 12.3483 7.51166C11.6451 8.21493 11.25 9.16875 11.25 10.1633C11.25 11.1579 11.6451 12.1117 12.3483 12.815C13.0516 13.5182 14.0054 13.9133 15 13.9133Z" fill="white"/>
</g>
<defs>
<clipPath id="clip0_1454_2864">
<rect width="30" height="30" fill="white" transform="translate(0 0.163315)"/>
</clipPath>
</defs>
</svg>