<svg xmlns="http://www.w3.org/2000/svg" width="26" height="27" viewBox="0 0 26 27" fill="none">
<g clip-path="url(#clip0_1454_2887)">
<path d="M25.2045 0.689786C25.129 0.501951 24.9841 0.350425 24.7998 0.266729C24.6155 0.183033 24.406 0.173613 24.215 0.240427C24.0239 0.307241 23.866 0.445146 23.774 0.625452C23.682 0.805759 23.6631 1.01458 23.7212 1.20849C24.9289 4.67949 22.5317 7.27169 20.7039 8.66008L19.9655 7.60189C19.7172 7.24699 19.1621 6.95189 18.7305 6.94669L14.5861 6.96489C14.0798 6.98018 13.5871 7.13199 13.16 7.40429L0.947762 15.9674C0.663705 16.1673 0.470427 16.4716 0.410245 16.8137C0.350063 17.1558 0.427882 17.5077 0.626662 17.7926L6.17636 25.733C6.59236 26.3245 7.25666 26.253 7.84946 25.8396L20.0617 17.2752C20.4127 17.0269 20.8183 16.4913 20.9613 16.0818L22.2587 11.9933C22.4017 11.5851 22.3146 10.9624 22.0663 10.6075L21.6165 9.96269C24.0709 8.08159 26.6189 4.75749 25.2045 0.689786ZM19.5222 12.8552C19.2972 13.0127 19.0434 13.1243 18.7753 13.1836C18.5071 13.243 18.2299 13.2489 17.9595 13.2011C17.6891 13.1533 17.4307 13.0527 17.1992 12.905C16.9677 12.7573 16.7675 12.5655 16.6102 12.3404C16.2916 11.8849 16.1667 11.3217 16.263 10.7743C16.3593 10.2269 16.6688 9.74 17.1237 9.42058C17.4803 9.17075 17.906 9.03857 18.3414 9.04253C18.7768 9.04649 19.2001 9.1864 19.5521 9.44269C19.1985 9.65589 18.9554 9.78069 18.9099 9.80019C18.7487 9.87702 18.6184 10.0063 18.5404 10.1669C18.4623 10.3274 18.4411 10.5098 18.4803 10.6839C18.5194 10.8581 18.6165 11.0139 18.7558 11.1256C18.895 11.2374 19.068 11.2986 19.2466 11.2991C19.3584 11.2991 19.4728 11.2731 19.5807 11.2224C19.8329 11.1028 20.1033 10.9611 20.3854 10.7934C20.4503 11.1835 20.4037 11.5839 20.2509 11.9487C20.0982 12.3135 19.8456 12.6277 19.5222 12.8552Z" fill="white"/>
</g>
<defs>
<clipPath id="clip0_1454_2887">
<rect width="26" height="26" fill="white" transform="translate(0 0.163315)"/>
</clipPath>
</defs>
</svg>